PathFileType	4	(X/Y/Z)	Patient4_TMGait_0pt6_01_right_19.trc.trc
DataRate	CameraRate	NumFrames	NumMarkers	Units	OrigDataRate	OrigDataStartFrame	OrigNumFrames
82.352941176471	82.352941176471	4	33	mm	82.352941176471	106	       141
Frame#	Time	Sacral			L.Shoulder			Chest			R.Shoulder			Neck			R.ASIS			L.ASIS			R.Thigh.Superior			R.Thigh.Lateral			R.Thigh.Inferior			R.Patella			L.Thigh.Superior			L.Thigh.Lateral			L.Thigh.Inferior			L.Patella			L.Shank.Superior			L.Shank.Lateral			L.Shank.Inferior			R.Shank.Superior			R.Shank.Lateral			R.Shank.Inferior			R.Heel			R.Midfoot.Superior			R.Midfoot.Lateral			R.Toe			L.Heel			L.Midfoot.Lateral			L.Midfoot.Superior			L.Toe			L.Elbow			L.Wrist			R.Elbow			R.Wrist			
		X1	Y1	Z1	X2	Y2	Z2	X3	Y3	Z3	X4	Y4	Z4	X5	Y5	Z5	X6	Y6	Z6	X7	Y7	Z7	X8	Y8	Z8	X9	Y9	Z9	X10	Y10	Z10	X11	Y11	Z11	X12	Y12	Z12	X13	Y13	Z13	X14	Y14	Z14	X15	Y15	Z15	X16	Y16	Z16	X17	Y17	Z17	X18	Y18	Z18	X19	Y19	Z19	X20	Y20	Z20	X21	Y21	Z21	X22	Y22	Z22	X23	Y23	Z23	X24	Y24	Z24	X25	Y25	Z25	X26	Y26	Z26	X27	Y27	Z27	X28	Y28	Z28	X29	Y29	Z29	X30	Y30	Z30	X31	Y31	Z31	X32	Y32	Z32	X33	Y33	Z33	

106	23.775000000000	715.810690764650	1011.258244827535	433.227326466823	899.074739017788	1440.601005848723	258.524263360481	992.912069253099	1371.999356744511	425.265625909938	897.498912581185	1442.853797905495	593.408140411431	877.069003878862	1501.209917314641	411.448157111647	936.332511328221	950.224391388841	561.979439907551	939.039357412210	967.335404504086	286.877847423444	1021.966434501700	780.816725367271	536.857430936314	981.206065413988	659.360356701465	610.020768094462	1072.787867491904	621.030234163059	533.126275216696	1098.377136043365	514.886140820417	557.327424614838	969.537486608883	747.758837103660	318.327534410936	872.378559448344	638.856743245141	257.833878972460	947.035906337614	555.523889577745	323.330405616780	940.485953298375	488.010988667073	334.425004048671	915.311555549222	417.516047407808	326.657258596576	825.679616467736	302.370376078138	277.432414787977	876.162931231981	193.456507119161	352.440803695670	1038.818287526343	431.569587783873	561.263614871606	931.242519794294	361.630415347184	618.655124612274	946.284489555089	253.444026307874	567.907642470616	769.840512098927	135.339825808958	534.422717087728	947.786273224698	135.447376119208	582.760881007284	842.472255547866	99.307602243229	611.049681899872	1042.487348936103	48.815563492301	612.390454052291	747.713410068080	37.932506694784	400.530627337951	820.478487084314	34.963029033964	317.895338594961	903.699833335700	96.397053294697	343.223680553084	1032.052213930508	45.535681239671	313.427805453421	966.502208028074	1098.570473328306	128.631206752939	1178.713404500766	944.917111431355	138.866620020130	812.361107100508	1101.756490295343	698.423423079990	837.769367506061	840.752753672231	709.902524024704	
107	23.787142857143	715.160201276932	1011.424546317161	432.169316629139	901.104772021303	1440.804077547996	259.128070972319	993.371985159049	1371.628324120457	426.489609755595	896.746219582663	1442.411854593729	593.966097493594	877.855376960416	1501.111614798365	412.122369380037	934.997107914518	950.451346623754	562.335393651115	938.841875597630	966.950807117175	287.367173000495	1021.277061985998	782.179945574895	536.935764162062	981.753561771718	660.537382322629	610.423522996441	1073.183959863658	622.888989649475	533.171148994811	1100.829128111102	518.508640917182	557.595934976787	967.376012725074	746.662328670619	319.264062840948	869.051837964073	638.813368027218	257.784223365761	941.956097312960	554.649767271630	323.773444036907	934.494646372225	487.397419218029	334.822619318927	909.282200311452	417.202287707421	326.895851619345	819.549586384681	302.331331745277	277.353737480363	869.323265234198	193.272592772353	352.593387392059	1044.967567461301	433.735256519969	562.022018851607	941.346669624881	358.704929398583	620.145135508701	961.670188484653	251.192961259825	569.587684902139	791.295770521694	124.505260439291	537.002631096109	969.266618878442	132.985456010986	584.741108952102	865.870186209701	92.049713827464	613.569877248253	1068.028108347028	50.987677080158	614.177356135207	740.403047069361	37.949273346133	400.505297957589	813.153487721587	34.966341544333	317.908643034877	896.419419267709	96.329571884604	343.275101998254	1024.773826842637	45.334526351800	313.430954852338	970.093718035464	1099.821048183105	128.120441236672	1188.373230212688	955.153894570557	139.966669452881	804.113440236954	1103.745031371411	698.780402454839	818.853697847422	842.422469979258	713.765300303020	
108	23.799285714286	714.695961695678	1011.453900650986	431.271286393803	903.167550296536	1440.826976914704	259.859570572285	993.904907443781	1371.123532934090	427.821739034036	896.130895126249	1441.922344182451	594.621430544680	878.707282247334	1500.888204650373	412.883742327170	933.749089451560	950.470339977860	562.798606543485	938.767446070333	966.510224111406	287.956027770531	1020.334578426451	783.113378085768	537.143552857046	981.745133598562	661.313366109511	610.936488816752	1073.102601560965	624.268147889238	533.465679825557	1102.627557586406	521.769387253602	557.991039912648	965.278677470108	745.516276288288	320.122668511436	865.708788007155	638.756906737974	257.737629760657	936.882776719502	553.772976908728	324.157388104037	928.538124384010	486.780375763991	335.142244179550	903.255861418604	416.891832701583	327.089175074517	813.389298669092	302.307331856980	277.258429774001	862.477175435832	193.098437917418	352.718937972879	1050.605738876518	435.717211036652	562.840659701534	951.230974068868	355.755938190428	621.678243432881	976.864108746824	249.220691955671	571.257894321440	813.076620485153	114.248598832420	539.477828505835	990.671527445190	131.008325151730	586.641298297527	889.404470849087	85.387117946148	615.957487518041	1093.248114594507	53.809721065276	615.847925356838	733.100733983609	37.982429809639	400.464437677758	805.826101776002	34.969533357144	317.916947946371	889.138011688923	96.266403257058	343.316033931394	1017.489747114141	45.139755411993	313.436460746338	973.364506608548	1100.827206985241	127.714034475785	1197.167816287194	965.241800856429	141.245679943880	795.918879792465	1106.015727635937	699.438042942728	801.195325174716	844.900902544094	717.371781031839	
109	23.811428571429	714.427282118618	1011.338478052904	430.531445471575	905.236547727168	1440.675249586586	260.718548325344	994.495649346397	1370.497177313209	429.259665478119	895.640293309884	1441.393135074939	595.374315969624	879.605342327180	1500.545613613582	413.727578881574	932.613849954654	950.294005766831	563.386550316443	938.856522165257	966.026323115738	288.644138476882	1019.182014914481	783.614584769146	537.510306551833	981.215275878337	661.674565756477	611.569847210233	1072.596961418081	625.159983689060	534.023144076483	1103.804850772277	524.633187479968	558.501923897176	963.248966428702	744.324678111219	320.892612401769	862.357436027149	638.688210114902	257.704505958904	931.845493923596	552.897803016997	324.480420898220	922.656306399510	486.158074421213	335.381595935477	897.257985667993	416.585501903484	327.239796449190	807.207850440438	302.307200422105	277.154424986997	855.633765467262	192.935299022870	352.814874355681	1055.711578237365	437.494648743593	563.711714590285	960.821842751176	352.818927261769	623.236724110039	991.717649927963	247.556412338619	572.897704442495	834.939765963780	104.717590465573	541.834369210241	1011.786755294961	129.522295171348	588.438832560935	912.818058933918	79.386392449219	618.177255786498	1117.881728143092	57.190882604281	617.349270125799	725.802717161085	38.035774670805	400.409805042058	798.496283589726	34.974301427206	317.920207660757	881.857148892153	96.205413399279	343.346335580150	1010.198471824440	44.947986026730	313.443986977867	976.348155193552	1101.597213576695	127.429241044051	1205.095127485437	975.078593848077	142.694793657363	787.883048231929	1108.532411748815	700.356090511301	784.823783087056	847.953428319321	720.702560674716	
